<svg id="visual" viewBox="0 0 900 600" width="900" height="600" xmlns="http://www.w3.org/2000/svg" xmlns:xlink="http://www.w3.org/1999/xlink" version="1.1"><rect x="0" y="0" width="900" height="600" fill="#001220"></rect><defs><linearGradient id="grad1_0" x1="33.3%" y1="0%" x2="100%" y2="100%"><stop offset="20%" stop-color="#001220" stop-opacity="1"></stop><stop offset="80%" stop-color="#001220" stop-opacity="1"></stop></linearGradient></defs><defs><linearGradient id="grad2_0" x1="0%" y1="0%" x2="66.7%" y2="100%"><stop offset="20%" stop-color="#001220" stop-opacity="1"></stop><stop offset="80%" stop-color="#001220" stop-opacity="1"></stop></linearGradient></defs><g transform="translate(900, 0)"><path d="M0 216.3C-34.1 219.2 -68.2 222.1 -82.8 199.9C-97.4 177.6 -92.4 130.3 -108.2 108.2C-124 86.1 -160.5 89.2 -182 75.4C-203.5 61.6 -209.9 30.8 -216.3 0L0 0Z" fill="#FBAE3C"></path></g><g transform="translate(0, 600)"><path d="M0 -216.3C32.4 -217.5 64.7 -218.6 82.8 -199.9C100.9 -181.1 104.6 -142.4 120.2 -120.2C135.8 -98 163.1 -92.3 181.1 -75C199.1 -57.7 207.7 -28.9 216.3 0L0 0Z" fill="#FBAE3C"></path></g></svg>