<svg id="visual" viewBox="0 0 900 600" width="900" height="600" xmlns="http://www.w3.org/2000/svg" xmlns:xlink="http://www.w3.org/1999/xlink" version="1.1"><rect x="0" y="0" width="900" height="600" fill="#140021"></rect><path d="M353 0L405 0L405 33L378 33L378 67L441 67L441 100L446 100L446 133L289 133L289 167L231 167L231 200L400 200L400 233L416 233L416 267L347 267L347 300L352 300L352 333L283 333L283 367L293 367L293 400L339 400L339 433L209 433L209 467L348 467L348 500L351 500L351 533L351 533L351 567L260 567L260 600L0 600L0 567L0 567L0 533L0 533L0 500L0 500L0 467L0 467L0 433L0 433L0 400L0 400L0 367L0 367L0 333L0 333L0 300L0 300L0 267L0 267L0 233L0 233L0 200L0 200L0 167L0 167L0 133L0 133L0 100L0 100L0 67L0 67L0 33L0 33L0 0L0 0Z" fill="#9900ff"></path><path d="M179 0L360 0L360 33L201 33L201 67L216 67L216 100L298 100L298 133L312 133L312 167L162 167L162 200L325 200L325 233L222 233L222 267L157 267L157 300L208 300L208 333L174 333L174 367L357 367L357 400L361 400L361 433L135 433L135 467L358 467L358 500L346 500L346 533L139 533L139 567L239 567L239 600L0 600L0 567L0 567L0 533L0 533L0 500L0 500L0 467L0 467L0 433L0 433L0 400L0 400L0 367L0 367L0 333L0 333L0 300L0 300L0 267L0 267L0 233L0 233L0 200L0 200L0 167L0 167L0 133L0 133L0 100L0 100L0 67L0 67L0 33L0 33L0 0L0 0Z" fill="#8200d9"></path><path d="M271 0L246 0L246 33L260 33L260 67L89 67L89 100L152 100L152 133L207 133L207 167L188 167L188 200L166 200L166 233L220 233L220 267L261 267L261 300L112 300L112 333L139 333L139 367L115 367L115 400L131 400L131 433L247 433L247 467L253 467L253 500L263 500L263 533L70 533L70 567L223 567L223 600L0 600L0 567L0 567L0 533L0 533L0 500L0 500L0 467L0 467L0 433L0 433L0 400L0 400L0 367L0 367L0 333L0 333L0 300L0 300L0 267L0 267L0 233L0 233L0 200L0 200L0 167L0 167L0 133L0 133L0 100L0 100L0 67L0 67L0 33L0 33L0 0L0 0Z" fill="#6c00b4"></path><path d="M177 0L87 0L87 33L63 33L63 67L31 67L31 100L46 100L46 133L36 133L36 167L113 167L113 200L24 200L24 233L27 233L27 267L10 267L10 300L148 300L148 333L159 333L159 367L142 367L142 400L20 400L20 433L122 433L122 467L151 467L151 500L178 500L178 533L173 533L173 567L31 567L31 600L0 600L0 567L0 567L0 533L0 533L0 500L0 500L0 467L0 467L0 433L0 433L0 400L0 400L0 367L0 367L0 333L0 333L0 300L0 300L0 267L0 267L0 233L0 233L0 200L0 200L0 167L0 167L0 133L0 133L0 100L0 100L0 67L0 67L0 33L0 33L0 0L0 0Z" fill="#560090"></path></svg>